<?xml version="1.0" encoding="UTF-8" standalone="no"?>
<!-- Created with Inkscape (http://www.inkscape.org/) -->

<svg
   xmlns:dc="http://purl.org/dc/elements/1.1/"
   xmlns:cc="http://creativecommons.org/ns#"
   xmlns:rdf="http://www.w3.org/1999/02/22-rdf-syntax-ns#"
   xmlns:svg="http://www.w3.org/2000/svg"
   xmlns="http://www.w3.org/2000/svg"
   xmlns:sodipodi="http://sodipodi.sourceforge.net/DTD/sodipodi-0.dtd"
   xmlns:inkscape="http://www.inkscape.org/namespaces/inkscape"
   id="svg2"
   version="1.1"
   inkscape:version="0.46+devel"
   width="256"
   height="256"
   sodipodi:docname="salix-256.png"
   inkscape:output_extension="org.inkscape.output.svg.inkscape">
  <metadata
     id="metadata8">
    <rdf:RDF>
      <cc:Work
         rdf:about="">
        <dc:format>image/svg+xml</dc:format>
        <dc:type
           rdf:resource="http://purl.org/dc/dcmitype/StillImage" />
        <dc:title></dc:title>
      </cc:Work>
    </rdf:RDF>
  </metadata>
  <defs
     id="defs6">
    <inkscape:perspective
       sodipodi:type="inkscape:persp3d"
       inkscape:vp_x="0 : 0.5 : 1"
       inkscape:vp_y="0 : 1000 : 0"
       inkscape:vp_z="1 : 0.5 : 1"
       inkscape:persp3d-origin="0.5 : 0.33333333 : 1"
       id="perspective10" />
  </defs>
  <sodipodi:namedview
     pagecolor="#ffffff"
     bordercolor="#666666"
     borderopacity="1"
     objecttolerance="10"
     gridtolerance="10"
     guidetolerance="10"
     inkscape:pageopacity="0"
     inkscape:pageshadow="2"
     inkscape:window-width="1918"
     inkscape:window-height="1144"
     id="namedview4"
     showgrid="false"
     inkscape:zoom="0.921875"
     inkscape:cx="128"
     inkscape:cy="125.83051"
     inkscape:window-x="-1"
     inkscape:window-y="-1"
     inkscape:window-maximized="1"
     inkscape:current-layer="svg2" />
  <path
     style="fill:#000000"
     d="m 28.084747,216.73729 c 1.375,-0.78602 3.50046,-1.44508 4.72325,-1.46456 3.63927,-0.058 10.54006,-4.05967 14.17724,-8.22116 l 3.40049,-3.89068 -2.58687,-2.7118 c -2.8002,-2.93542 -4.71411,-7.14528 -4.71411,-10.36917 0,-1.11494 -0.9,-3.17134 -2,-4.56976 -1.47643,-1.87697 -2,-4.05678 -2,-8.32669 0,-3.54061 -0.63828,-6.89624 -1.6456,-8.65139 -2.32447,-4.05016 -1.12223,-11.43513 2.46187,-15.12242 1.47605,-1.51855 3.5763,-4.43364 4.66722,-6.47798 1.55567,-2.91528 1.74124,-4.1049 0.86033,-5.51545 -0.84397,-1.35141 -0.80227,-2.56164 0.16776,-4.86865 0.71,-1.68861 1.78536,-3.37577 2.38967,-3.74926 0.60431,-0.37348 1.09875,-1.47407 1.09875,-2.44573 0,-1.86701 3.38811,-5.49711 7.21251,-7.72764 6.14037,-3.5813 9.36841,-4.57308 13.20814,-4.05806 4.22366,0.56651 4.0871,0.64475 11.57935,-6.63408 4.40678,-4.28126 6.78276,-5.56509 9.15244,-4.9454 1.57811,0.41268 1.83682,1.36337 1.66524,6.11923 -0.11172,3.09686 -0.67891,6.43188 -1.26041,7.41116 -1.41841,2.3887 0.17402,3.29502 7.25094,4.12677 3.469033,0.40771 8.740393,2.20853 13.871943,4.73898 8.78212,4.3306 11.08012,4.48794 15.32652,1.04942 1.90041,-1.53885 2.07903,-2.16703 1.12375,-3.952 -0.78213,-1.46142 -0.80995,-2.32371 -0.0893,-2.76908 1.2178,-0.75264 3.95597,1.24846 3.96522,2.89784 0.003,0.62016 1.37977,1.90922 3.05843,2.86458 2.99509,1.70458 3.09858,1.69056 5.53913,-0.75 1.77663,-1.77662 3.57234,-2.48702 6.28659,-2.48702 2.52956,0 4.40453,-0.66849 5.60953,-2 2.26724,-2.50527 2.99956,-2.50044 5.53647,0.0365 2.24956,2.24956 1.82878,3.96353 -0.97304,3.96353 -1.0002,0 -2.35715,0.64899 -3.01546,1.4422 -0.6583,0.7932 -2.6259,1.5807 -4.37244,1.75 -4.11516,0.39888 -4.10971,2.2173 0.008,2.61619 2.67346,0.25899 3.29263,0.81962 3.86547,3.5 0.90753,4.24638 2.2038,5.69161 5.10499,5.69161 1.32492,0 2.66139,0.65787 2.96994,1.46193 0.30854,0.80407 1.41942,1.73439 2.46861,2.06739 1.04919,0.333 1.90762,1.26425 1.90762,2.06945 0,2.43119 -2.95408,2.78934 -5.30088,0.64268 -1.20952,-1.10637 -3.32412,-2.34153 -4.69912,-2.7448 -3.38847,-0.99379 -6,-3.428 -6,-5.59262 0,-2.55117 -1.45045,-3.14864 -8.90017,-3.66618 -9.65522,-0.67076 -16.79231,-0.41277 -23.85846,0.86241 -5.91596,1.06762 -6.54561,0.98603 -11.5,-1.49011 -2.89667,-1.44772 -6.807083,-2.58044 -8.741373,-2.53209 -3.20263,0.08 -11.01428,-1.73261 -15.21208,-3.5299 -1.19141,-0.51011 -2.4789,0.0944 -4.23357,1.98769 -2.07664,2.24074 -3.07661,2.6097 -5.66818,2.09138 -2.26365,-0.45273 -4.0854,-0.0492 -6.49173,1.43801 l -3.34503,2.06734 0.52238,7.03031 c 0.52209,7.02655 0.52015,7.0332 -3.63951,12.42488 -3.57556,4.63459 -4.06962,5.85366 -3.507,8.6534 0.36018,1.79236 0.97434,5.03785 1.3648,7.2122 0.55881,3.11188 1.56133,4.53104 4.70992,6.66729 2.54032,1.72355 4.04436,3.53551 4.12156,4.96535 0.0669,1.23828 1.30435,3.11304 2.75,4.16612 1.44546,1.05304 2.62826,2.57154 2.62826,3.37441 0,2.34885 9.79867,10.71365 14.85466,12.68092 2.55494,0.99412 6.44534,2.65586 8.64534,3.69276 4.67397,2.20293 18.731353,5.98391 22.438343,6.03519 1.40891,0.0195 3.68666,0.67854 5.06166,1.46456 2.2013,1.25838 -1.74149,1.42393 -33.000003,1.38562 -19.525,-0.0239 -34.9375,-0.27049 -34.25,-0.5479 0.6875,-0.27741 1.25,-0.9222 1.25,-1.43287 0,-1.0981 -8.05757,-0.0553 -9.45,1.22301 -0.5225,0.47968 -5.4725,0.85619 -11,0.8367 -9.22062,-0.0325 -9.84369,-0.15337 -7.55,-1.46456 z M 239.64933,203.59862 c -2.72172,-2.97091 -3.844,-3.54107 -6.11547,-3.10685 -3.0352,0.58021 -9.3842,-2.03499 -9.42451,-3.88204 -0.0135,-0.62015 0.65783,-1.69392 1.49191,-2.38614 0.83408,-0.69222 1.39658,-2.41883 1.25,-3.8369 -0.36275,-3.50941 2.16318,-3.87276 7.96473,-1.14571 2.68413,1.26169 5.82461,1.99496 7.49446,1.74988 2.2585,-0.33148 3.29209,0.16486 4.8243,2.31665 2.33581,3.28034 2.36905,3.65359 0.49249,5.53015 -0.80163,0.80163 -1.21698,2.08432 -0.923,2.85043 0.63627,1.65808 -1.26095,5.5492 -2.70566,5.5492 -0.55869,0 -2.51585,-1.6374 -4.34925,-3.63867 z m -25.56458,-9.48045 c -1.925,-1.16141 -3.62309,-2.22032 -3.77354,-2.35314 -0.15044,-0.13281 0.0102,-0.98089 0.35699,-1.88461 0.84182,-2.19375 2.71597,-2.07475 4.87364,0.30945 1.26056,1.39291 2.56008,1.79399 4.53371,1.39926 3.6964,-0.73928 4.59333,1.0354 1.5358,3.03878 -3.11607,2.04172 -3.32057,2.02787 -7.5266,-0.50974 z m -16.73614,-2.98235 c -0.42012,-0.40105 -1.88426,-0.87978 -3.25364,-1.06385 -1.56777,-0.21074 -2.60783,-1.07532 -2.80855,-2.33468 -0.17532,-1.1 -0.58658,-2.675 -0.91391,-3.5 -0.32732,-0.825 -0.49769,-2.2875 -0.37859,-3.25 0.19278,-1.5579 -0.92793,-2.22072 -3.15917,-1.86842 -0.4125,0.0651 -0.75,-0.34123 -0.75,-0.90302 0,-0.56179 -1.125,-1.53402 -2.5,-2.16051 -3.44813,-1.57108 -3.32976,-5.85784 0.27311,-9.89015 2.45823,-2.75123 3.18585,-3.02622 6.40796,-2.42175 2.51893,0.47255 3.83044,1.34379 4.27196,2.83787 0.60585,2.05015 0.69627,2.06583 1.84205,0.31936 3.06296,-4.66877 3.26928,-4.81082 5.99412,-4.12693 1.71407,0.4302 2.7108,1.35418 2.7108,2.51294 0,2.46815 1.65203,3.34497 6.97652,3.70281 5.05023,0.3394 6.27691,1.17824 6.52547,4.4623 0.15765,2.08309 0.5859,2.25538 4.83549,1.94543 3.91397,-0.28547 4.66252,-0.0573 4.66252,1.42126 0,0.96873 0.73439,2.57282 1.63198,3.56464 1.52851,1.68899 1.45729,1.86973 -1.1234,2.85091 -1.51545,0.57617 -4.31076,0.7558 -6.21179,0.39916 -2.14902,-0.40316 -4.3952,-0.14601 -5.93832,0.67984 -1.98653,1.06316 -2.87688,1.0816 -4.46086,0.0924 -2.45605,-1.53383 -3.8686,-0.77318 -3.21383,1.73063 0.27281,1.04323 -0.0206,2.86216 -0.65211,4.04207 -0.94342,1.76279 -1.93763,2.10443 -5.57604,1.91609 -2.43536,-0.12607 -4.77165,-0.55734 -5.19177,-0.95839 z m -55.06386,-4.09853 c -0.66,-0.66 -1.2,-2.01 -1.2,-3 0,-0.99 -0.46114,-1.8 -1.02475,-1.8 -0.56361,0 -1.45248,-1.125 -1.97525,-2.5 -1.11295,-2.92729 -4.64069,-3.37364 -6.50567,-0.82314 -1.06922,1.46226 -1.62737,1.51067 -4.36114,0.37831 -2.45959,-1.0188 -3.44914,-1.03784 -4.59313,-0.0884 -1.8765,1.55735 -7.19521,0.4371 -8.52184,-1.79491 -0.89014,-1.49763 -1.19877,-1.41133 -2.96167,0.82815 -1.71028,2.17265 -2.23388,2.33632 -3.99869,1.25 -1.1169,-0.6875 -2.93683,-1.25 -4.04429,-1.25 -1.48114,-1e-5 -2.01357,-0.66106 -2.01357,-2.50001 0,-1.375 -0.19928,-2.5 -0.44284,-2.5 -0.24356,0 -1.980613,0.9073 -3.860103,2.01623 -3.09576,1.82655 -4.10323,1.91894 -10.70866,0.98212 -6.13276,-0.86978 -7.55794,-0.7929 -8.96865,0.48377 -2.09117,1.89249 -2.4387,1.88744 -6.61862,-0.0961 -4.18713,-1.98688 -4.73027,-5.38602 -0.86064,-5.38602 1.39727,0 3.84322,-0.96315 5.43544,-2.14033 2.23894,-1.65532 3.80201,-2.01866 6.89774,-1.60344 3.75342,0.50344 4.06895,0.34713 5.06456,-2.50889 1.38863,-3.98341 1.39428,-3.96899 -0.98252,-2.50581 -1.75714,1.0817 -2.28388,0.95887 -3.75,-0.87449 -2.29585,-2.87092 -5.43563,-4.36704 -9.16472,-4.36704 -2.37639,0 -3.31012,-0.57766 -4.04099,-2.5 -0.52278,-1.375 -1.63664,-2.5 -2.47525,-2.5 -1.07591,0 -1.52475,-1.0303 -1.52475,-3.5 0,-3.41038 0.10133,-3.5 3.95737,-3.5 3.3241,0 4.40425,0.56008 6.75,3.49997 1.53594,1.92498 3.4778,3.49998 4.31524,3.5 0.83743,2e-5 3.07726,1.80003 4.97739,4.00003 4.2226,4.88899 8.16686,5.43567 10.19543,1.4131 0.71751,-1.42279 2.99791,-3.53958 5.067553,-4.70397 l 3.76298,-2.11708 1.54372,2.20398 c 0.84905,1.21218 2.53071,2.21086 3.73702,2.21928 3.42248,0.0239 4.99523,1.45803 4.23292,3.85984 -0.4918,1.54954 -0.25002,2.12485 0.89299,2.12485 0.86207,0 1.56739,-0.68912 1.56739,-1.53138 0,-2.33724 2.73031,-2.87535 5.47254,-1.07857 1.3514,0.88547 3.38705,1.60995 4.52366,1.60995 1.13661,0 2.30663,0.62558 2.60003,1.39018 0.2934,0.76459 1.51678,1.44262 2.71862,1.50672 1.20183,0.0641 4.77265,0.38016 7.93515,0.70237 4.75618,0.48458 5.75,0.91119 5.75,2.46828 0,1.50324 0.55397,1.78579 2.75,1.4026 2.06351,-0.36007 3.62372,0.28456 6.25,2.5823 3.37966,2.95687 3.43326,3.11177 1.55887,4.50486 -1.06762,0.79348 -3.30155,1.44269 -4.96429,1.44269 -2.77999,0 -2.89356,0.12959 -1.41193,1.61122 0.88617,0.88617 3.72083,1.849 6.29925,2.13963 5.15592,0.58115 6.73399,2.46184 4.19561,5.00021 -1.41073,1.41073 -2.08284,1.43529 -5.79074,0.21157 -3.98799,-1.31615 -4.26713,-1.27541 -5.66274,0.82649 -1.61787,2.43663 -4.17001,2.8649 -6.02403,1.01088 z m 31.3,-17.17575 c -2.2,-1.22494 -5.94989,-3.52605 -8.33309,-5.11358 -3.89931,-2.59746 -4.64496,-2.7687 -7.44833,-1.71055 -2.66241,1.00495 -3.41346,0.91042 -5.16691,-0.65036 -1.12842,-1.00442 -3.73145,-2.83095 -5.78452,-4.05895 -2.05306,-1.228 -5.42806,-4.19 -7.5,-6.58222 -3.46564,-4.00137 -5.64516,-5.00643 -10.01715,-4.61928 -3.4416,0.30476 0.70047,6.11069 4.3595,6.11069 2.02193,0 4.40833,4.4465 3.63367,6.77049 -0.56127,1.6838 -2.73632,1.54515 -4.24317,-0.27049 -0.68469,-0.825 -2.57011,-1.5 -4.18983,-1.5 -2.46178,0 -2.8437,-0.319 -2.32783,-1.94436 0.44171,-1.39169 -0.10763,-2.41924 -1.93261,-3.61501 -2.68246,-1.75762 -3.21787,-4.32369 -1.55171,-7.43693 0.73208,-1.3679 0.5968,-2.26602 -0.50767,-3.3705 -0.82813,-0.82812 -1.16474,-1.70158 -0.74802,-1.94101 1.5072,-0.86598 7.83934,0.0506 11.47555,1.66113 2.04484,0.90567 4.62376,1.64668 5.73095,1.64668 1.30459,0 2.23038,0.86583 2.63053,2.46018 0.33961,1.3531 2.67622,4.1656 5.19247,6.25 8.00872,6.63422 9.35209,7.29364 13.50559,6.62947 2.94156,-0.47038 4.30914,-0.16732 6.01488,1.33291 1.21424,1.06794 4.5586,3.491 7.43191,5.38458 2.94838,1.94304 5.23545,4.20522 5.25,5.19286 0.0323,2.19323 -0.52588,2.12943 -5.47421,-0.62575 z m 1.13259,-10.28305 c -7.47782,-1.91076 -10.89106,-6.22194 -7.2913,-9.20949 1.90732,-1.58293 13.37577,-1.20333 18.40871,0.60933 5.40822,1.94782 5.82005,5.01276 1,7.44235 -4.69084,2.36446 -6.65911,2.55252 -12.11741,1.15781 z m 71.80921,-2.43537 c -0.37193,-0.60179 -1.83821,-0.87204 -3.2584,-0.60056 -5.7228,1.09399 -9.82087,-3.6241 -5.4334,-6.25543 1.61236,-0.967 1.55501,-1.2144 -0.72916,-3.14554 -2.41177,-2.03904 -2.42696,-2.13417 -0.55887,-3.50015 2.50257,-1.82992 4.9573,-1.77356 9.1369,0.20979 2.39116,1.13468 3.40113,2.28612 3.40113,3.87756 0,1.24498 0.675,2.82381 1.5,3.5085 0.825,0.68469 1.5,1.99979 1.5,2.92244 0,3.24058 -4.0543,5.41675 -5.5582,2.98339 z m -19.18684,-4.75551 c -2.67665,-0.77534 -8.25496,-5.22811 -8.25496,-6.58934 0,-0.52854 0.54,-0.42098 1.2,0.23902 0.66,0.66 2.01709,1.2 3.01575,1.2 0.99866,0 3.60866,0.55957 5.8,1.24348 2.66154,0.83066 3.98425,1.82661 3.98425,3 0,1.81828 -1.682,2.08378 -5.74504,0.90684 z M 33.683207,148.60078 c -3.06754,-3.84451 -3.05735,-4.25656 0.31809,-12.86349 1.06484,-2.71519 3.13323,-8.59669 3.80132,-10.80908 0.38251,-1.2667 -0.0929,-1.97624 -1.58579,-2.36663 -1.17265,-0.30665 -2.13208,-1.34882 -2.13208,-2.31592 0,-0.9671 -0.25605,-3.05212 -0.56901,-4.63337 -0.51824,-2.6185 -0.19335,-3.03634 3.64162,-4.68338 5.57342,-2.39368 7.1641,-0.95009 3.60883,3.27512 -1.42884,1.69808 -2.34354,3.75023 -2.03268,4.56034 0.75762,1.97431 1.69504,1.85549 3.81142,-0.48308 0.97358,-1.0758 3.72303,-2.24885 6.10989,-2.60678 5.76247,-0.86413 7.61103,-2.38477 7.81438,-6.42815 0.20389,-4.05407 1.62569,-4.76033 4.09353,-2.0334 2.20977,2.44177 4.75452,2.57332 8.04701,0.416 2.26173,-1.48194 2.50426,-1.47901 3.0861,0.0372 0.36584,0.95335 -0.15082,2.51 -1.2282,3.70049 -1.3829,1.52809 -2.66453,1.9243 -4.99909,1.54546 -2.66211,-0.43201 -3.72097,0.0861 -6.96456,3.40784 -2.6043,2.66705 -4.69707,3.9173 -6.55709,3.9173 -1.50257,0 -3.88625,0.43886 -5.29705,0.97525 -2.11488,0.80407 -2.5651,1.62397 -2.5651,4.67126 0,2.0328 -0.71497,4.48604 -1.58882,5.45164 -0.87385,0.96559 -1.95139,3.36318 -2.39452,5.32798 -0.63927,2.83442 -0.41191,4.07297 1.10066,5.99589 1.88104,2.39135 1.87833,2.47104 -0.20426,6.00076 -1.16084,1.96747 -2.62866,3.57721 -3.26184,3.57719 -0.63317,-2e-5 -2.45691,-1.63643 -4.05276,-3.63648 z m 134.901543,-4.36349 c -0.33992,-0.55 -1.73231,-1 -3.0942,-1 -3.27182,0 -7.16727,-2.63806 -8.93058,-6.04791 -1.11376,-2.15378 -1.15693,-2.96325 -0.19888,-3.72911 2.43021,-1.94272 5.31,-2.16226 9.95552,-0.75895 4.07593,1.23125 4.92767,1.23358 6.14443,0.0168 2.18929,-2.1893 9.62718,-4.87739 10.65412,-3.85045 0.49888,0.49888 0.58118,3.78929 0.1847,7.3847 l -0.71511,6.48492 -4,0.0587 c -2.2,0.0323 -4.98292,0.59479 -6.18426,1.25 -2.65528,1.44818 -3.02741,1.46684 -3.81574,0.19129 z m 52.63824,-0.61573 c -1.69737,-1.18888 -2.60154,-1.32097 -3.42251,-0.5 -2.90125,2.90125 -11.34867,-0.3147 -10.21435,-3.88863 0.40211,-1.26693 -0.0336,-2.02977 -1.40844,-2.46614 -2.16649,-0.68762 -3.62062,-3.86667 -2.55634,-5.58873 0.36614,-0.59241 1.35222,-0.81368 2.1913,-0.49169 2.16534,0.83092 4.1606,-1.15944 3.54028,-3.53158 -1.11629,-4.26868 7.20929,-6.71854 10.35336,-3.04654 1.35118,1.57807 2.0563,1.69946 4.50432,0.77543 2.59059,-0.97784 3.17374,-0.80285 5.42872,1.62905 1.3895,1.49851 3.23563,2.72456 4.10252,2.72456 1.12637,0 1.41376,0.62102 1.00708,2.17619 -0.313,1.19691 0.15191,3.39675 1.03313,4.88854 0.88122,1.49178 1.35115,3.3666 1.04429,4.16626 -0.42906,1.11812 -10.25459,4.76901 -12.8347,4.76901 -0.25404,0 -1.49994,-0.72708 -2.76866,-1.61573 z m -24.09628,-1.83371 c -0.87058,-1.04899 -3.02637,-1.55056 -6.6644,-1.55056 -4.11339,0 -5.37756,-0.35262 -5.37756,-1.5 0,-1.17306 1.35994,-1.5 6.23949,-1.5 6.44577,0 15.01931,2.67383 14.4291,4.5 -0.55515,1.71773 -7.21063,1.75674 -8.62663,0.0506 z m -34.93682,-16.79552 c -0.35506,-0.95973 -3.0843,-3.5774 -6.06498,-5.81704 -3.91757,-2.9436 -5.99041,-3.89225 -7.47979,-3.42315 -1.83894,0.57919 -4.69188,1.16643 -6.81037,1.40182 -0.4125,0.0458 -0.75,0.89333 -0.75,1.88333 0,3.70935 -4.74866,5.47525 -8.83811,3.28664 -1.05646,-0.5654 -3.50315,-0.50225 -6.42236,0.16576 -4.13603,0.94645 -4.97056,0.8485 -6.78868,-0.79688 -1.77318,-1.6047 -2.20652,-1.66482 -2.99659,-0.41576 -0.508,0.80313 -0.93053,1.79774 -0.93895,2.21024 -0.0309,1.51353 -4.8189,0.69233 -7.28818,-1.25 -1.39842,-1.1 -3.13157,-2 -3.85143,-2 -0.71986,0 -3.23638,-0.73614 -5.592273,-1.63586 -4.01294,-1.53255 -4.28343,-1.87741 -4.28343,-5.46104 0,-6.9136 6.205773,-9.91653 13.112383,-6.34498 3.01194,1.55753 4.5299,1.6417 21.37705,1.18537 l 8.98942,-0.24349 0.51532,-3 c 0.39576,-2.30396 1.10788,-3.06913 3.06932,-3.29797 3.93892,-0.45954 7.93651,1.44101 7.93651,3.77322 0,2.53656 0.80949,2.55235 3.4546,0.0674 1.87386,-1.7604 2.33316,-1.81383 4.56445,-0.53101 1.36452,0.78449 3.71845,1.93432 5.23095,2.55517 1.5125,0.62086 2.79783,1.64732 2.8563,2.28102 0.0585,0.63369 0.17096,2.04588 0.25,3.13819 0.0986,1.36321 1.06207,2.1472 3.07221,2.5 2.16253,0.37954 3.12524,1.25 3.68062,3.32791 0.41365,1.54767 1.27587,3.44504 1.91603,4.21638 2.25003,2.71113 0.53834,3.94782 -5.47957,3.95896 -4.6055,0.009 -5.92739,-0.34742 -6.44045,-1.73423 z M 15.074677,117.72657 c -1.9397,-2.06472 -2.9548,-2.3989 -5.7143102,-1.88121 -2.46311,0.46208 -3.87691,0.15774 -5.31561,-1.14426 -2.29884,-2.08042 -2.57596,-4.46381 -0.51903,-4.46381 2.01732,0 2.93456,-1.84258 1.67359,-3.36196 -1.83017,-2.20521 1.36178,-5.383 6.1299102,-6.10274 8.09903,-1.222522 9.94949,-1.741182 9.10436,-2.551792 -0.46687,-0.44779 -1.90712,-0.96476 -3.20058,-1.14883 -2.05271,-0.29213 -2.39673,-0.97044 -2.70559,-5.33468 -0.29093,-4.11106 0.0722,-5.52311 2.04265,-7.94231 2.07931,-2.552883 3.06607,-2.942305 7.45558,-2.942305 4.01392,0 5.0591,-0.337447 5.0591,-1.633379 0,-3.139525 4.18047,-5.631526 9.75,-5.81203 4.45266,-0.144307 5.25,0.103335 5.25,1.630574 0,2.651801 2.31874,7.182648 3.68045,7.191648 0.64924,0.0043 1.32424,-1.004698 1.5,-2.242198 0.24238,-1.706682 1.07985,-2.323842 3.46813,-2.555795 1.73172,-0.168187 4.70446,0.344291 6.60608,1.13884 1.90163,0.79455 4.64985,1.216703 6.10717,0.938119 4.79206,-0.916062 7.90769,3.942406 3.27397,5.105396 -1.88965,0.47427 -2.2677,1.09821 -1.88343,3.10841 0.58053,3.03681 1.35777,3.16956 3.01556,0.51503 1.35457,-2.16902 3.27056,-2.51762 5.99564,-1.09086 4.21568,2.20719 15.4114,7.09086 16.25565,7.09086 1.09263,0 3.98078,5.28281 3.98078,7.281362 0,0.75937 -1.08877,1.96337 -2.41949,2.67555 -1.8671,0.99924 -3.15687,1.03782 -5.64922,0.16898 -4.22384,-1.47244 -9.22287,-1.43431 -10.73908,0.0819 -1.78598,1.78598 -13.18237,1.84476 -15.87288,0.0819 -2.95249,-1.93454 -5.63427,-0.94293 -6.96184,2.57419 -0.82136,2.17604 -1.90088,2.99872 -4.47018,3.40664 -2.25376,0.35783 -3.75885,0.0679 -4.49755,-0.86635 -0.61064,-0.7723 -2.48564,-1.40417 -4.16667,-1.40417 -1.68103,0 -3.25805,-0.5625 -3.50448,-1.25 -0.77991,-2.17581 -6.0381,1.74229 -7.2697,5.41696 -0.71187,2.12395 -1.86492,3.444 -3.17858,3.63891 -1.13381,0.16822 -2.85321,1.18072 -3.82089,2.25 -2.40358,2.65592 -5.63547,2.43946 -8.45951,-0.56659 z m 159.552363,1.57914 c -0.55526,-0.89843 3.09142,-4.06842 4.68022,-4.06842 1.57902,0 0.71443,2.96338 -1.15677,3.96482 -2.37627,1.27174 -2.79392,1.28402 -3.52345,0.1036 z m 28.02226,-1.31842 c -1.29877,-4.35618 -1.50071,-4.57945 -3.63661,-4.02091 -1.20692,0.31562 -2.41193,1.40569 -2.6778,2.42238 -0.40552,1.55071 -1.49609,1.84853 -6.76895,1.84853 -6.09369,0 -6.31766,-0.0922 -7.33799,-3.01907 -0.99966,-2.86762 -1.25807,-2.9862 -5.15086,-2.36371 -3.57288,0.57132 -4.46201,0.30699 -6.93417,-2.06149 -2.52059,-2.41488 -2.81589,-3.34698 -2.65685,-8.38629 0.17571,-5.567342 0.23224,-5.670022 3.13881,-5.701872 2.25594,-0.0247 3.03397,-0.54538 3.27146,-2.18926 0.28799,-1.99348 0.82198,-2.13848 7.04996,-1.91439 7.43639,0.26756 11.61014,2.24331 10.55386,4.99592 -0.42245,1.10089 -0.10102,1.64016 0.9776,1.64016 0.88385,0 1.60699,-0.45 1.60699,-1 0,-0.55 1.35,-1 3,-1 1.88149,0 3,0.5136 3,1.37756 0,0.75765 0.70951,1.966402 1.5767,2.686092 1.31418,1.09068 2.14075,1.00479 4.96443,-0.51587 3.17646,-1.710632 3.54586,-1.720802 5.9233,-0.16304 1.58449,1.0382 2.53557,2.59045 2.53557,4.13831 0,2.65779 0.93745,3.1395 2.6931,1.38385 1.72385,-1.72385 6.2337,1.65702 5.57424,4.1788 -0.4579,1.75102 -0.0782,1.96422 3.11487,1.74917 2.2788,-0.15347 4.23524,0.35401 5.24057,1.35934 1.47231,1.47231 1.31349,1.7422 -1.93127,3.28194 -2.61349,1.24018 -4.03597,1.40987 -5.45455,0.65067 -3.24814,-1.73835 -9.66645,-1.63983 -12.27669,0.18846 -2.80923,1.96765 -8.85528,2.24739 -9.39572,0.43472 z m -95.07632,-13.18375 c -1.09353,-0.82646 -3.42417,-1.51695 -5.17921,-1.53445 -3.689293,-0.0368 -4.903713,-1.29336 -2.876183,-2.97606 0.775953,-0.643982 1.712943,-2.959132 2.082203,-5.144782 0.65244,-3.86177 0.49778,-4.14273 -5.480963,-9.95671 -6.13456,-5.965519 -6.1504,-5.995779 -5.47967,-10.468531 0.62717,-4.182242 0.52076,-4.485719 -1.57283,-4.485719 -3.28869,0 -8.98158,-3.842618 -8.98158,-6.062429 0,-1.67487 -0.53012,-1.82665 -4.48606,-1.284427 -2.94404,0.403524 -5.00268,0.186132 -5.98899,-0.632437 -2.20689,-1.831553 -0.91034,-3.020707 3.29352,-3.020707 2.65525,0 4.06438,-0.582768 4.98896,-2.063263 1.92645,-3.084734 5.45945,-2.157935 6.72742,1.764777 1.47602,4.56639 2.26096,4.965731 3.47648,1.768669 0.58702,-1.543956 1.78158,-3.32949 2.65459,-3.967853 1.32071,-0.965721 1.38074,-1.546622 0.35745,-3.458669 -0.99425,-1.857758 -0.97061,-2.462291 0.12338,-3.155522 1.79531,-1.137638 2.60357,-1.101144 3.37839,0.152538 0.35374,0.572373 1.50752,0.766345 2.56394,0.431049 1.18073,-0.374748 2.12724,-0.07158 2.45666,0.786874 0.717683,1.870236 -1.20093,6.731035 -3.71712,9.417372 -2.10401,2.246275 -1.76995,4.324028 0.69521,4.324028 2.20051,0 3.745653,3.911133 3.11437,7.883255 -0.70568,4.440302 -0.15295,5.344312 4.646383,7.599267 4.91784,2.310638 6.17316,4.704778 6.30114,12.017478 0.0578,3.3 0.42115,6.9 0.80753,8.000002 0.40563,1.15477 0.14904,2.75413 -0.60713,3.78444 -1.17958,1.60721 -1.50714,1.6352 -3.29789,0.28181 z m 6.63365,0.53024 c -0.76107,-0.48205 -1.04406,-1.41338 -0.63205,-2.08004 0.41034,-0.66394 0.16731,-2.28857 -0.54005,-3.610302 -1.59987,-2.98938 -0.55378,-4.25293 1.79409,-2.16705 1.29107,1.14701 2.81542,1.38365 5.75613,0.89358 4.62671,-0.77105 5.56154,-3.45165 1.37307,-3.93723 -1.44481,-0.1675 -3.66421,-1.40868 -4.93201,-2.75818 l -2.30507,-2.45364 2.20236,-2.97886 2.20236,-2.97885 -4.95096,-3.556912 -4.95097,-3.556913 1.53824,-3.706048 c 0.84603,-2.038326 2.1648,-4.065908 2.93061,-4.505737 0.7658,-0.43983 1.39237,-1.48983 1.39237,-2.333333 0,-0.843504 0.5625,-1.346354 1.25,-1.117444 2.15224,0.716611 2.02488,3.845722 -0.24252,5.958123 -2.76895,2.579675 -1.32544,4.240728 2.88222,3.316571 3.76163,-0.826194 4.52251,-1.885484 3.16982,-4.413004 -0.94357,-1.763089 -0.66634,-1.93413 3.20376,-1.976564 2.3302,-0.02555 5.13672,-0.178801 6.23672,-0.340557 3.36223,-0.49442 2.30019,2.617522 -1.25,3.662695 -1.7875,0.526238 -3.25,1.588819 -3.25,2.36129 0,1.064532 0.85035,1.244969 3.51306,0.745441 2.64394,-0.496007 3.6559,-0.286805 4.09045,0.845619 0.40977,1.067848 1.42207,1.335737 3.48694,0.922762 2.27213,-0.454425 2.90955,-0.220484 2.90955,1.067842 0,2.509331 -3.76461,3.421601 -11.75923,2.849589 -4.81994,-0.344865 -7.24077,-0.158549 -7.24077,0.557276 0,0.591442 0.47635,1.369748 1.05855,1.729567 0.60722,0.375286 0.78652,1.892707 0.42054,3.559017 -0.52262,2.37948 -0.30715,2.90566 1.19145,2.90958 2.26768,0.006 9.32946,6.35298 9.32946,8.38522 0,0.82058 -0.4892,1.79431 -1.08712,2.16384 -0.59791,0.36953 -0.87807,1.471282 -0.62257,2.448322 0.82201,3.14334 -0.56726,4.09703 -4.0521,2.78165 -2.62959,-0.99256 -3.75706,-0.90681 -6.73231,0.51199 -4.014,1.91414 -5.39045,2.06339 -7.38402,0.80069 z m 39.37109,-19.992142 c -3.94827,-0.48422 -5.69276,-1.33162 -8.25,-4.007519 -3.52136,-3.684771 -3.90947,-5.030326 -2.00133,-6.938472 0.98886,-0.988854 0.93796,-1.433636 -0.25,-2.184687 -0.8204,-0.518676 -2.74326,-0.949937 -4.27302,-0.958359 -3.13556,-0.01726 -4.60016,-2.404939 -3.00642,-4.901236 0.65815,-1.030886 2.43191,-1.614077 4.90914,-1.614077 3.56785,0 3.8578,-0.206289 3.61835,-2.574348 -0.19813,-1.959365 0.68369,-3.332975 3.69136,-5.75 4.41861,-3.550893 5.67803,-3.785941 8.56895,-1.599237 1.37788,1.042232 3.14181,1.320227 5.67069,0.893699 3.29612,-0.555936 3.70429,-0.381917 4,1.705388 0.3071,2.167753 0.71119,2.301789 5.99254,1.987732 4.72666,-0.281071 6.01723,0.01723 7.80376,1.803752 1.17728,1.177285 2.90383,2.044802 3.83676,1.927816 2.74055,-0.343654 7.0076,1.171208 7.59251,2.695445 0.29753,0.775364 1.64557,1.409753 2.99563,1.409753 1.35006,0 3.72669,1.058144 5.28138,2.351432 1.5547,1.293287 3.86657,2.898754 5.1375,3.567704 1.27092,0.66895 2.14868,1.702513 1.95058,2.296807 -0.1981,0.594294 -2.65963,2.095345 -5.47006,3.33567 -4.58854,2.025051 -5.38587,2.111954 -7.8149,0.851761 -3.90939,-2.028215 -7.22208,-1.779998 -7.97673,0.597687 -0.80978,2.551389 -2.82706,3.573189 -8.75104,4.432599 -4.54361,0.65916 -4.79777,0.56725 -5.81256,-2.101829 -1.04253,-2.742063 -2.58385,-4.286248 -4.3085,-4.316518 -0.47985,-0.0084 -0.39309,0.562279 0.19279,1.268225 0.58589,0.705947 0.75349,1.744531 0.37245,2.307965 -1.22603,1.812897 -5.59116,4.412797 -7.16531,4.267697 -0.84012,-0.0774 -3.78065,-0.41712 -6.53452,-0.75485 z m -50.8263,-7.771017 c -1.0628,-1.062798 -0.77206,-4.827946 0.46861,-6.068618 0.84705,-0.847046 0.29916,-2.19098 -2.15796,-5.293354 -2.658873,-3.357097 -3.022043,-4.329767 -1.885293,-5.049402 0.77438,-0.490233 1.880473,-0.898224 2.457973,-0.906646 1.48501,-0.02166 3.45,2.128097 3.45,3.774394 0,0.764339 1.0125,2.213646 2.25,3.220683 2.19617,1.787167 2.20813,1.90236 0.5,4.814584 -0.9625,1.640986 -1.75,3.701679 -1.75,4.579318 0,1.5994 -2.08254,2.179831 -3.33333,0.929041 z m 18.33333,-12.646258 c -1.925,-0.609812 -4.24458,-2.022463 -5.15461,-3.139225 -1.60708,-1.972146 -1.71275,-1.977863 -3.67834,-0.19903 -3.65812,3.310559 -9.00459,-0.41243 -10.07829,-7.017976 -0.45995,-2.829675 -1.37481,-4.098061 -4.022833,-5.577404 -3.22693,-1.802753 -3.6656,-1.82101 -7.49671,-0.312001 l -4.06922,1.602795 -2.75773,-3.272117 c -2.48892,-2.953179 -2.85928,-3.101542 -3.79969,-1.522117 -0.57308,0.9625 -1.49134,1.75 -2.04058,1.75 -0.54924,0 -2.74904,0.845712 -4.88844,1.879361 -3.69094,1.783268 -4.14833,1.795089 -8.94561,0.231189 -5.85429,-1.90848 -8.96585,-5.323725 -7.00401,-7.687597 0.98379,-1.185398 0.98137,-1.969778 -0.0118,-3.825605 -2.00777,-3.751563 -0.99375,-6.025603 2.95926,-6.636362 2.45035,-0.378592 4.19842,-0.0066 5.8735,1.25 3.14412,2.358577 3.94298,2.260979 5.2663,-0.643397 0.60956,-1.337826 2.40088,-2.967823 3.98072,-3.622215 2.43148,-1.007151 3.62976,-0.864012 7.80566,0.932411 2.71327,1.167218 5.58915,2.122215 6.39085,2.122215 1.66888,0 2.67161,-2.08785 2.67161,-5.562735 0,-2.619475 0.83545,-2.949203 9.670203,-3.816551 4.44333,-0.436222 5.49775,-0.184318 7.5,1.791789 1.41336,1.394901 3.61005,2.329783 5.58448,2.376684 1.79007,0.04252 3.95971,0.78235 4.82143,1.644063 0.86171,0.861712 2.47673,1.56675 3.58894,1.56675 1.18119,0 2.2397,0.831775 2.5452,2 0.36728,1.404462 1.36402,2 3.34736,2 1.5534,0 3.12745,0.490413 3.49789,1.089807 0.4042,0.654005 2.01621,0.837919 4.03116,0.459913 3.95395,-0.741765 8.96432,1.460175 9.87882,4.34151 0.43026,1.355627 1.83516,2.065572 4.82087,2.436144 10.48938,1.301895 16.18173,3.986215 15.54511,7.330554 -0.29711,1.56079 -1.60647,1.918421 -8.57481,2.342072 -7.08286,0.430613 -8.44244,0.812241 -9.79711,2.75 -1.78309,2.550599 -3.40225,2.761778 -8.11341,1.0582 -3.99718,-1.445399 -5.28982,-0.508447 -2.91653,2.114006 1.11933,1.236853 1.51355,2.681557 1.09315,4.00613 -0.51355,1.618025 -1.49185,2.071664 -4.46769,2.071664 -2.16687,0 -4.34708,0.646941 -5.05506,1.5 -1.42327,1.71494 -3.05642,1.75313 -8,0.187075 z m -81.479813,-0.65441 c -0.41585,-0.672854 -0.20649,-2.250299 0.46523,-3.505433 1.00421,-1.876374 0.93229,-2.723193 -0.40458,-4.763504 -1.42783,-2.179147 -1.44627,-2.630524 -0.15136,-3.705204 0.82972,-0.688604 2.40148,-0.929563 3.59419,-0.55101 1.37889,0.437642 2.79498,0.06159 4.05205,-1.076045 1.61817,-1.464424 2.35647,-1.55558 4.54026,-0.560576 1.90257,0.866866 2.96605,0.890953 3.93227,0.08906 0.97481,-0.80902 2.92501,-0.650056 7.38808,0.602219 5.23233,1.468116 6.06367,2.026068 6.06367,4.069603 0,1.302524 -0.45,2.368225 -1,2.368225 -0.55,0 -1,0.884167 -1,1.964816 0,3.058584 -3.41026,4.377894 -7.49671,2.900215 -2.95253,-1.06765 -3.69036,-1.005714 -5.29258,0.444282 -2.39017,2.163074 -13.60562,3.478763 -14.69052,1.723352 z"
     id="path2818" />
</svg>
